Coordinates
version=1
nRows=5
nColumns=40
inDegrees=yes

Units are S.I. units (second, meters, Newtons, ...)
If the header above contains a line with 'inDegrees', this indicates whether rotational values are in degrees (yes) or radians (no).

endheader
time	pelvis_tilt	pelvis_list	pelvis_rotation	pelvis_tx	pelvis_ty	pelvis_tz	hip_flexion_r	hip_adduction_r	hip_rotation_r	knee_angle_r	knee_angle_r_beta	ankle_angle_r	subtalar_angle_r	mtp_angle_r	hip_flexion_l	hip_adduction_l	hip_rotation_l	knee_angle_l	knee_angle_l_beta	ankle_angle_l	subtalar_angle_l	mtp_angle_l	lumbar_extension	lumbar_bending	lumbar_rotation	arm_flex_r	arm_add_r	arm_rot_r	elbow_flex_r	pro_sup_r	wrist_flex_r	wrist_dev_r	arm_flex_l	arm_add_l	arm_rot_l	elbow_flex_l	pro_sup_l	wrist_flex_l	wrist_dev_l
      3.50000000	     -3.32104468	     -9.17371299	      6.43330179	     -0.38552563	      0.80959428	     -1.06305815	     69.46873089	     -8.77151691	    -14.31777846	     53.76054369	      0.93829849	     -0.07165482	      0.00000000	      0.00000000	     56.48508287	     -3.00570572	     -0.12724725	     86.91691511	      1.51698634	     22.40988446	      0.00000000	      0.00000000	    -19.84504196	      7.25227239	     -0.63340110	     89.86669012	    -19.36067648	     19.90663098	     45.24339762	     84.02832645	      0.00000000	      0.00000000	     89.92274703	    -21.36757718	     29.91387529	     43.97361662	     84.98281460	      0.00000000	      0.00000000
      3.50500000	     -3.37473804	     -9.27083858	      6.48855939	     -0.38566062	      0.80882459	     -1.06292563	     69.58315913	     -8.81672465	    -14.40578984	     53.83053161	      0.93952001	     -0.05343883	      0.00000000	      0.00000000	     56.66265260	     -3.05443285	     -0.03479781	     87.07221142	      1.51969678	     22.44084500	      0.00000000	      0.00000000	    -19.78854293	      7.32907003	     -0.63822772	     89.86643217	    -19.38212127	     19.88356372	     45.22440463	     84.33027405	      0.00000000	      0.00000000	     89.92302157	    -21.37000978	     29.87864836	     43.99413619	     84.94122872	      0.00000000	      0.00000000
      3.51000000	     -3.34624071	     -9.28086514	      6.54125027	     -0.38581810	      0.80821913	     -1.06282361	     69.62252107	     -8.88786108	    -14.40863393	     53.91653600	      0.94102107	     -0.01694203	      0.00000000	      0.00000000	     56.73024887	     -3.06918089	     -0.04716279	     87.19246911	      1.52179567	     22.42415668	      0.00000000	      0.00000000	    -19.83555792	      7.32660646	     -0.64053153	     89.86675276	    -19.38840194	     19.86682209	     45.25406395	     84.31393312	      0.00000000	      0.00000000	     89.92335975	    -21.35664633	     29.77868065	     44.00922503	     85.08701250	      0.00000000	      0.00000000
      3.51500000	     -3.34760911	     -9.24262976	      6.55811975	     -0.38586672	      0.80760825	     -1.06277857	     69.70106968	     -8.98684468	    -14.41383297	     54.04602308	      0.94328105	      0.03445563	      0.00000000	      0.00000000	     56.79349919	     -3.06048525	     -0.09839128	     87.30483760	      1.52375687	     22.40034806	      0.00000000	      0.00000000	    -19.84767226	      7.26426328	     -0.64521536	     89.86634335	    -19.38542333	     19.89939019	     45.19981031	     84.14931537	      0.00000000	      0.00000000	     89.92394673	    -21.29951388	     29.66627807	     43.94083468	     85.08029526	      0.00000000	      0.00000000
      3.52000000	     -3.33435626	     -9.19641151	      6.61395169	     -0.38602344	      0.80708515	     -1.06274814	     69.73231346	     -9.11062308	    -14.42984464	     54.10459806	      0.94430338	      0.08757248	      0.00000000	      0.00000000	     56.83255954	     -3.00393320	     -0.12265158	     87.38046947	      1.52507689	     22.46183515	      0.00000000	      0.00000000	    -19.88240130	      7.21607273	     -0.71640976	     89.86678929	    -19.30841784	     19.79629274	     45.15472585	     84.28106911	      0.00000000	      0.00000000	     89.92403136	    -21.37525167	     29.67226026	     44.01354708	     84.99802756	      0.00000000	      0.00000000
